<svg xmlns="http://www.w3.org/2000/svg" width="1000" height="1000"><defs><clipPath id="a"><path d="M0 0h1000v1000H0z"/></clipPath></defs><g clip-path="url(#a)"><path fill="rgba(0,0,0,0)" d="M0 0h1000v1000H0z"/><path data-name="多角形 3" d="M945.341 386.89l-219.8 212.467 37.644 292.1L491.12 761.802 212.767 894.528l51.65-292.6-209.676-210.06 303.986-51.182 148.77-262.558 136.23 260.965z" fill="#3cc"/><path data-name="交差 3" d="M564.453 796.748V485.922h39.063v329.441z" fill="#96f" stroke="rgba(0,0,0,0)"/><path data-name="交差 2" d="M662.11 843.286V485.922h78.125v99.233l-14.692 14.2 14.692 114v167.161z" fill="#96f" stroke="rgba(0,0,0,0)"/><path data-name="交差 1" d="M784.297 486.077V361.369l117.188 18.57v49.345l-58.755 56.793z" fill="#96f" stroke="rgba(0,0,0,0)"/><path data-name="交差 4" d="M570.453 486.078V198.737l39.062 74.826v212.515z" fill="#96f" stroke="rgba(0,0,0,0)"/><path data-name="交差 5" d="M667.11 486.079v-143.28l78.125 12.38v130.9z" fill="#96f" stroke="rgba(0,0,0,0)"/><path data-name="交差 6" d="M779.297 485.922h63.6l-63.6 61.474z" fill="#96f" stroke="rgba(0,0,0,0)"/></g></svg>